<svg xmlns="http://www.w3.org/2000/svg" width="468" height="172" viewBox="0 0 468 172" fill="none"><path d="M455.237 27.0567L455.19 28.1959L455.049 29.3245L454.813 30.4314L454.485 31.506L454.069 32.538L453.568 33.5174L452.988 34.4347L452.333 35.2812L451.61 36.0488L450.826 36.73L449.99 37.3182L449.107 37.8078L448.188 38.1941L447.241 38.4734L446.275 38.6428L445.3 38.701L444.324 38.6472L443.357 38.482L442.41 38.2069L441.489 37.8248L440.606 37.3391L439.767 36.7546L438.982 36.0769L438.257 35.3126L437.6 34.4689L437.017 33.5541L436.513 32.577L436.094 31.5468L435.764 30.4737L435.525 29.3679L435.38 28.24L435.33 27.1009L435.377 25.9616L435.519 24.8331L435.754 23.7262L436.082 22.6516L436.498 21.6196L436.999 20.6402L437.58 19.7229L438.234 18.8764L438.957 18.1088L439.741 17.4276L440.578 16.8394L441.46 16.3498L442.379 15.9635L443.326 15.6842L444.292 15.5148L445.268 15.4566L446.243 15.5104L447.21 15.6756L448.158 15.9507L449.078 16.3328L449.961 16.8185L450.8 17.403L451.586 18.0807L452.31 18.8451L452.967 19.6887L453.551 20.6035L454.054 21.5806L454.473 22.6108L454.804 23.6839L455.042 24.7897L455.187 25.9176L455.237 27.0567ZM453.586 27.1527L453.437 25.2612L452.974 23.4395L452.215 21.7577L451.19 20.2804L449.937 19.0643L448.505 18.1563L446.949 17.5911L445.329 17.3905L443.706 17.5622L442.144 18.0996L440.702 18.9822L439.436 20.1758L438.395 21.6348L437.618 23.3029L437.135 25.1162L436.965 27.0049L437.114 28.8964L437.577 30.718L438.336 32.3999L439.361 33.8772L440.614 35.0933L442.046 36.0013L443.602 36.5665L445.222 36.7671L446.845 36.5954L448.407 36.058L449.849 35.1754L451.115 33.9818L452.156 32.5228L452.933 30.8547L453.416 29.0414L453.586 27.1527Z" fill="#FEFEFE"></path><path d="M446.516 28.1325L447.387 29.1709L448.174 30.2912L448.993 31.7286L449.696 33.2837L449.7 33.4576L449.595 33.5702L449.555 33.5753L448.062 33.5139L447.849 33.4372L447.704 33.2377L447.512 32.8029L446.66 30.9716L445.926 29.749L445.167 28.8998L444.34 28.3832L443.617 28.199L442.79 28.2297L442.629 28.3422L442.565 28.5571V33.2326L442.501 33.473L442.312 33.5548H441.16L441.015 33.4935L440.959 33.2991L440.827 21.4058L440.899 21.1193L441.124 21.0221L442.192 20.9761L444.697 20.9147L446.476 21.1551L447.214 21.4006L447.813 21.7127L448.307 22.1117L448.712 22.6181L449.073 23.3854L449.218 24.1527L449.198 24.741L449.077 25.3088L448.845 25.892L448.519 26.4291L448.11 26.9099L447.636 27.3192L447.118 27.6363L446.568 27.8512L446.432 27.9586L446.516 28.1325ZM442.585 23.232V25.8715L442.706 26.2552L443.007 26.4137L445.131 26.4188L445.958 26.291L446.656 25.9227L447.126 25.3651L447.251 25.0428L447.291 24.7103V24.4136L447.251 24.0811L447.126 23.7588L446.66 23.2013L445.962 22.8278L445.139 22.6948L443.015 22.6897L442.714 22.8483L442.585 23.232Z" fill="#FEFEFE"></path><path d="M336.456 15.2468H333.184C328.87 15.2468 325.373 18.744 325.373 23.0581V88.4721C325.373 92.7862 328.87 96.2834 333.184 96.2834H336.456C340.77 96.2834 344.267 92.7862 344.267 88.4721V23.0581C344.267 18.744 340.77 15.2468 336.456 15.2468Z" fill="#FEFEFE"></path><path d="M21.0006 88.7819V47.1601L21.2232 45.4855L21.833 44.0336L22.4912 43.1625L23.343 42.4075L25.5983 41.2362L27.9601 40.5684L30.1574 40.2973L32.2094 40.4135L34.0969 40.9362L35.4327 41.6041L36.6813 42.4946L37.8429 43.6271L38.9076 44.9822L38.9367 45.0209L39.2464 45.1661L39.5755 45.0306L41.0274 43.4625L43.3021 41.1685L44.241 40.5006L45.2864 40.0069L47.0481 39.6488L49.013 39.7553L51.0167 40.278L52.7396 41.1685L54.4432 42.6882L55.7112 44.5466L56.563 46.7826L56.9018 49.1541L56.7276 51.5352L56.0403 53.7905L54.9175 55.7071L53.3301 57.2848L51.1909 58.456L48.7614 58.9981L45.7026 59.3466L43.6893 59.7918L42.1406 60.45L41.0371 61.3212L40.3305 62.3085L39.8175 63.5668L39.5271 65.0381L39.4206 66.8288L39.3626 88.0559L39.2077 89.5272L38.7818 90.8533L37.5428 92.7021L35.6069 94.2024L33.1483 95.1897L30.4574 95.5866L27.7375 95.393L25.2208 94.5993L23.1688 93.2441L21.7943 91.4921L21.2716 90.2241L21.0006 88.7819Z" fill="#FEFEFE"></path><path d="M196.412 44.9143L197.68 44.0432L201.291 41.7394L202.801 41.0328L204.185 40.5876L206.847 40.0939L209.393 39.9487L211.841 40.1423L214.174 40.6844L216.536 41.6426L218.782 42.9881L220.901 44.7207L222.895 46.8502L223.244 47.0825L223.66 47.0148L224.706 46.3082L225.877 45.1273L226.845 44.1496L229.642 42.2815L232.739 40.9748L236.108 40.2294L239.534 40.0939L242.855 40.5585L245.991 41.6233L248.788 43.2785L251.053 45.3789L252.263 46.976L253.27 48.7861L253.831 50.2864L254.228 52.0674L254.528 56.52L254.538 87.6396L254.209 90.1659L253.763 91.3178L253.163 92.3148L252.292 93.3021L251.256 94.0958L249.998 94.754L248.614 95.2089L247.065 95.4896L245.449 95.5671L242.187 95.1412L239.709 94.2023L238.015 92.8375L237.153 91.5307L236.563 89.7884L236.243 87.7073L236.147 84.968L236.108 62.1825L236.011 60.3434L235.75 58.9592L235.295 57.8558L234.608 56.9943L233.853 56.4716L232.904 56.1328L230.329 55.9683L228.171 56.4232L227.338 56.8588L226.661 57.4492L225.867 58.8044L225.548 60.6048L225.509 61.5921L225.219 75.2208L225.296 88.8592L225.064 89.8658L224.309 91.3274L223.36 92.6439L222.392 93.5731L220.63 94.5604L218.685 95.2283L216.642 95.5477L214.59 95.5283L212.664 95.1702L210.883 94.4636L209.422 93.4666L208.231 92.1502L207.641 91.1435L207.205 90.0014L206.866 87.5234L206.837 61.263L206.508 59.1044L206.072 58.1558L205.482 57.3815L204.708 56.7233L203.807 56.2587L202.714 55.9489L201.543 55.8425L199.142 56.2393L196.887 57.3718L196.596 57.6719L196.412 58.1171L195.812 62.6374L195.483 67.7482L195.406 73.5462L195.561 81.5705L195.706 89.7594L195.648 90.4079L195.367 91.3468L194.854 92.2083L194.08 93.0504L193.102 93.7764L190.605 94.9089L187.711 95.4799L184.797 95.4316L182.232 94.8121L180.093 93.6312L178.592 91.9857L177.857 90.2917L177.586 88.23L177.576 47.4697L177.683 46.3469L177.992 45.3402L178.66 44.1883L179.589 43.2204L180.838 42.3686L182.261 41.7298L184.061 41.2264L185.9 40.9748L187.798 40.9554L189.501 41.178L189.714 41.2264L191.795 42.1073L194.215 43.898L195.454 44.8853L195.928 45.0498L196.412 44.9143Z" fill="#FEFEFE"></path><path d="M94.5451 44.363L95.3678 44.5662L96.1131 44.2371L97.9813 42.8723L99.8785 41.8657L101.795 41.2075L103.741 40.8977L105.58 40.9364L107.448 41.2752L109.326 41.9334L111.232 42.9014L112.181 43.6467L112.82 44.4791L113.265 45.4858L113.536 46.657L113.633 48.0121L113.681 85.888L113.585 88.1723L113.304 89.9534L112.801 91.415L112.026 92.6442L111.203 93.467L110.177 94.1543L107.39 95.19L105.425 95.5481L103.576 95.6158L101.843 95.4029L100.237 94.8996L97.991 93.5638L96.026 91.5408L95.3485 91.1343L94.5741 91.2988L92.464 92.5668L90.2958 93.6025L88.0792 94.3866L85.8432 94.9383L83.5395 95.2577L81.2454 95.3158L78.9708 95.1416L76.7348 94.706L73.2308 93.496L69.9301 91.6376L66.9779 89.2371L64.3451 86.2267L62.6318 83.623L61.2283 80.8546L60.0958 77.8637L59.2827 74.7759L58.76 71.4752L58.5664 68.1455L58.7019 64.8157L59.1569 61.5441L59.9409 58.3401L61.0347 55.2718L62.3898 52.4647L64.0353 49.8609L65.8744 47.5766L67.9749 45.5439L70.2399 43.8693L72.7372 42.4851L75.7378 41.3526L78.9998 40.6654L82.3683 40.4525L85.969 40.7235L87.7307 41.101L89.6182 41.7785L94.4095 44.2855L94.5451 44.363ZM86.2981 78.8026L88.1148 78.5924L89.8615 77.97L91.4714 76.9592L92.8825 75.599L94.0405 73.9414L94.901 72.0505L95.4309 69.9986L95.6098 67.8648L95.4309 65.7309L94.901 63.6791L94.0405 61.7881L92.8825 60.1306L91.4714 58.7703L89.8615 57.7596L88.1148 57.1371L86.2981 56.9269L84.4815 57.1371L82.7347 57.7596L81.1248 58.7703L79.7138 60.1306L78.5558 61.7881L77.6953 63.6791L77.1653 65.7309L76.9865 67.8648L77.1653 69.9986L77.6953 72.0505L78.5558 73.9414L79.7138 75.599L81.1248 76.9592L82.7347 77.97L84.4815 78.5924L86.2981 78.8026Z" fill="#FEFEFE"></path><path d="M282.522 90.8339L282.405 90.7758L282.047 90.8532L281.892 91.192L281.999 93.0795L282.347 100.939L282.299 106.679L281.834 110.987L281.457 112.535L280.953 113.745L279.705 115.304L277.817 116.562L275.485 117.375L272.929 117.694L270.306 117.52L267.847 116.843L265.795 115.7L264.392 114.249L263.792 113.106L263.347 111.635L262.93 107.705L262.737 92.0922L262.804 70.7006L262.872 50.3736L262.979 48.8056L263.288 47.3827L263.83 46.0179L264.556 44.8079L265.912 43.3366L267.557 42.2332L269.503 41.4685L271.584 41.1104L273.713 41.1781L275.814 41.6621L277.711 42.5333L279.414 43.8109L280.615 45.1467L280.944 45.3984L281.36 45.35L284.564 43.7432L287.613 42.2429L290.314 41.4104L292.995 40.9458L295.734 40.8103L298.415 41.0329L301.038 41.5847L303.555 42.4752L305.946 43.6658L308.182 45.1564L310.253 46.9181L312.141 48.9314L313.815 51.1964L315.258 53.6937L316.913 57.5945L318.036 61.6599L318.597 65.8124L318.607 69.9843L318.074 74.0787L316.971 78.057L315.364 81.7449L313.215 85.1908L311.657 87.1363L310.002 88.8786L308.24 90.408L306.391 91.7244L304.426 92.8472L302.394 93.7377L300.293 94.3959L298.144 94.8218L294.234 94.9767L290.255 94.3572L286.364 92.9827L282.522 90.8339ZM290.722 78.5891L292.483 78.3922L294.178 77.7902L295.743 76.8064L297.117 75.4785L298.248 73.8578L299.091 72.0063L299.615 69.9953L299.799 67.902L299.637 65.8069L299.134 63.7906L298.31 61.9304L297.197 60.2978L295.837 58.9557L294.282 57.9556L292.593 57.3359L290.834 57.1204L289.073 57.3174L287.378 57.9194L285.813 58.9032L284.439 60.231L283.309 61.8518L282.465 63.7033L281.941 65.7143L281.757 67.8076L281.919 69.9027L282.422 71.919L283.246 73.7792L284.36 75.4118L285.72 76.7539L287.274 77.754L288.963 78.3737L290.722 78.5891Z" fill="#FEFEFE"></path><path d="M139.826 73.3529L139.98 74.9403L140.416 76.2858L141.152 77.4667L142.11 78.3669L143.61 79.1122L145.275 79.3251L146.959 79.0154L148.547 78.1636L149.737 76.9827L150.657 75.3856L151.228 73.4594L151.412 71.3686L151.315 67.1096L151.141 57.5753L151.334 50.9449L151.915 46.4052L152.351 44.9339L152.903 43.9466L154.5 42.5334L156.436 41.5267L158.701 40.9073L161.062 40.7524L163.337 41.0524L165.437 41.8074L167.151 42.9399L168.496 44.479L169.367 46.4149L169.677 48.5444L169.851 63.5185L169.745 75.3178L169.474 78.5411L168.825 81.4933L167.761 84.2714L166.347 86.7396L164.963 88.54L163.385 90.1468L161.556 91.6181L159.562 92.8667L157.336 93.9605L154.993 94.822L152.438 95.4899L149.805 95.9255L147.066 96.1287L144.307 96.0997L141.539 95.8383L138.809 95.335L136.147 94.609L133.582 93.6605L131.22 92.5376L129.004 91.2116L126.148 88.8982L124.067 86.3428L122.77 83.7971L121.87 80.7964L121.367 77.2247L121.202 72.7721L121.212 46.8117L121.396 45.9987L121.88 45.0791L123.399 43.3658L126.1 41.7687L127.494 41.2654L128.917 40.9557L130.775 40.8395L132.672 41.0428L134.628 41.5558L136.622 42.3882L136.893 42.5334L137.628 43.0948L138.238 43.8014L139.148 45.7373L139.671 48.3411L139.816 51.6999L139.826 73.3529Z" fill="#FEFEFE"></path><path d="M352.523 46.9858L352.562 46.4728L352.804 45.5145L353.278 44.6337L354.023 43.7529L354.962 42.9785L357.411 41.7395L360.276 41.0426L363.18 40.9555L365.765 41.4685L367.971 42.5623L369.54 44.14L370.343 45.7468L370.72 47.7311L371.146 57.672L371.117 66.5868L371.05 68.1161L370.962 71.7169L371.204 74.3207L371.805 76.2856L372.773 77.6891L373.595 78.3474L374.554 78.8604L375.589 79.1701L377.699 79.2088L379.693 78.5022L380.565 77.8827L381.31 77.0987L382.065 75.7823L382.462 74.1755L382.849 67.6322L382.713 58.5334L382.568 51.3029V50.4511L382.733 46.8213L383.091 45.5145L383.614 44.4788L384.562 43.3947L385.956 42.4365L387.679 41.6331L389.373 41.1007L391.057 40.82L392.722 40.8103L394.484 41.0813L396.226 41.6621L397.939 42.5429L399.643 43.7238L400.117 44.4304L400.291 45.0112L400.775 46.8406L400.92 48.2345L400.95 74.0497L400.678 78.9765L400.301 80.9898L399.769 82.7128L399.043 84.3486L397.465 86.904L395.5 89.1593L393.109 91.1727L390.418 92.8569L387.321 94.2508L384.01 95.2768L380.468 95.9253L376.848 96.177L373.208 96.0318L369.646 95.4704L366.316 94.5315L363.19 93.215L360.48 91.5986L358.069 89.6433L356.104 87.4461L354.517 84.9294L353.743 83.1774L353.22 81.3867L352.842 79.1701L352.533 73.4399L352.523 46.9858Z" fill="#FEFEFE"></path><path d="M410.716 66.5578L409.468 64.3412L408.664 61.7471L408.374 58.9594L408.577 56.1233L409.294 53.2098L410.465 50.4608L412.052 47.9829L414.017 45.8824L415.498 44.7693L417.221 43.8013L419.254 42.9398L421.48 42.2429L423.832 41.7299L426.281 41.4008L428.778 41.2556L431.276 41.3137L433.579 41.5654L435.815 42.0009L437.829 42.6011L439.716 43.3851L441.323 44.3047L442.756 45.3888L443.917 46.5793L444.866 47.9345L445.621 49.5606L446.018 51.2448L446.037 52.842L445.679 54.4004L445.146 55.4941L444.391 56.5202L443.017 57.7495L441.575 58.4851L439.784 58.8239L437.751 58.6497L435.399 57.9527L432.282 56.5879L430.753 55.8813L429.166 55.4457L427.646 55.5813L426.504 56.2685L426.165 56.7622L426.02 57.3139L426.097 57.9721L426.455 58.64L427.036 59.2014L427.888 59.7144L430.482 60.934L434.886 63.0538L437.877 64.7381L440.287 66.4707L442.165 68.2807L444.043 70.9716L445.301 74.011L445.853 77.1955L445.717 80.3995L444.895 83.6034L443.443 86.6234L441.439 89.3046L438.913 91.589L435.951 93.3797L432.766 94.5412L429.417 95.1607L425.642 95.3736L421.799 95.1413L418.17 94.5025L414.995 93.4958L412.314 92.1697L410.097 90.4855L408.5 88.5689L407.871 87.2235L407.619 85.6941L407.764 84.1745L408.297 82.6064L409.177 81.1835L410.368 79.9155L411.781 78.9475L413.262 78.3668L414.84 78.1732L417.105 78.5894L420.125 79.8768L422.709 81.0093L424.645 81.5126L426.358 81.4932L427.878 80.9706L428.101 80.835L428.682 80.1962L428.943 79.3831L428.846 78.5313L428.411 77.7957L426.949 76.4406L425.168 75.2113L422.99 74.0497L419.951 72.6946L416.534 71.1652L414.143 69.8004L412.246 68.3098L410.755 66.6062L410.716 66.5578Z" fill="#FEFEFE"></path><path d="M348.711 112.969H353.418V139.754H348.711V112.969ZM366.213 128.351V139.754H361.583V119.55H366.213V122.688C366.544 122.203 366.902 121.757 367.284 121.349C367.692 120.915 368.152 120.532 368.662 120.201C369.198 119.869 369.772 119.614 370.384 119.435C371.021 119.231 371.736 119.129 372.527 119.129C374.822 119.129 376.595 119.831 377.845 121.234C379.095 122.637 379.72 124.525 379.72 126.897V139.754H375.09V128.275C375.09 126.693 374.708 125.481 373.942 124.639C373.203 123.772 372.144 123.338 370.766 123.338C369.414 123.338 368.317 123.785 367.476 124.678C366.634 125.545 366.213 126.77 366.213 128.351ZM406.702 139.754H402.072V136.387C401.332 137.433 400.401 138.326 399.278 139.065C398.181 139.805 396.817 140.175 395.184 140.175C393.985 140.175 392.824 139.945 391.702 139.486C390.579 139.027 389.584 138.351 388.717 137.458C387.85 136.54 387.148 135.43 386.613 134.129C386.077 132.828 385.809 131.336 385.809 129.652C385.809 127.968 386.064 126.476 386.574 125.175C387.11 123.874 387.812 122.777 388.679 121.884C389.546 120.966 390.541 120.277 391.664 119.818C392.812 119.359 393.985 119.129 395.184 119.129C396.842 119.129 398.22 119.486 399.317 120.201C400.413 120.915 401.332 121.744 402.072 122.688V111.821H406.702V139.754ZM402.148 129.652C402.148 128.657 401.982 127.764 401.651 126.974C401.345 126.183 400.924 125.507 400.388 124.946C399.852 124.359 399.227 123.912 398.513 123.606C397.799 123.3 397.059 123.147 396.294 123.147C395.503 123.147 394.75 123.3 394.036 123.606C393.347 123.887 392.735 124.308 392.199 124.869C391.664 125.43 391.243 126.119 390.937 126.935C390.63 127.726 390.477 128.632 390.477 129.652C390.477 130.647 390.63 131.553 390.937 132.369C391.243 133.16 391.664 133.836 392.199 134.397C392.735 134.958 393.347 135.392 394.036 135.698C394.75 136.004 395.503 136.157 396.294 136.157C397.059 136.157 397.799 136.004 398.513 135.698C399.227 135.392 399.852 134.958 400.388 134.397C400.924 133.81 401.345 133.121 401.651 132.331C401.982 131.54 402.148 130.647 402.148 129.652ZM419.058 116.451H414.084V112.05H419.058V116.451ZM418.905 139.754H414.275V119.55H418.905V139.754ZM443.438 139.754H438.846V137.267C438.158 138.083 437.277 138.772 436.206 139.333C435.135 139.894 433.834 140.175 432.303 140.175C431.334 140.175 430.415 140.035 429.548 139.754C428.681 139.499 427.915 139.116 427.252 138.606C426.614 138.07 426.091 137.42 425.683 136.655C425.301 135.864 425.109 134.958 425.109 133.938V133.861C425.109 132.764 425.313 131.808 425.721 130.991C426.13 130.175 426.691 129.499 427.405 128.963C428.145 128.428 429.012 128.032 430.007 127.777C431.028 127.497 432.124 127.356 433.298 127.356C434.522 127.356 435.556 127.433 436.397 127.586C437.265 127.739 438.094 127.943 438.885 128.198V127.701C438.885 126.298 438.451 125.226 437.584 124.486C436.742 123.747 435.517 123.377 433.91 123.377C432.762 123.377 431.742 123.491 430.849 123.721C429.956 123.951 429.051 124.257 428.132 124.639L426.869 120.928C427.992 120.418 429.14 120.009 430.313 119.703C431.487 119.397 432.903 119.244 434.561 119.244C437.571 119.244 439.803 119.997 441.257 121.502C442.711 122.981 443.438 125.073 443.438 127.777V139.754ZM438.961 132.445V131.183C438.374 130.953 437.673 130.762 436.857 130.609C436.066 130.456 435.224 130.379 434.331 130.379C432.877 130.379 431.742 130.66 430.926 131.221C430.109 131.782 429.701 132.586 429.701 133.632V133.708C429.701 134.678 430.071 135.417 430.811 135.928C431.576 136.438 432.507 136.693 433.604 136.693C434.369 136.693 435.071 136.591 435.709 136.387C436.372 136.183 436.946 135.902 437.431 135.545C437.915 135.162 438.285 134.716 438.54 134.206C438.821 133.67 438.961 133.083 438.961 132.445Z" fill="#F3F3F3"></path><path d="M348.711 112.969V112.669H348.411V112.969H348.711ZM353.418 112.969H353.718V112.669H353.418V112.969ZM353.418 139.754V140.054H353.718V139.754H353.418ZM348.711 139.754H348.411V140.054H348.711V139.754ZM348.711 113.269H353.418V112.669H348.711V113.269ZM353.118 112.969V139.754H353.718V112.969H353.118ZM353.418 139.454H348.711V140.054H353.418V139.454ZM349.011 139.754V112.969H348.411V139.754H349.011ZM366.213 139.754V140.054H366.513V139.754H366.213ZM361.583 139.754H361.283V140.054H361.583V139.754ZM361.583 119.55V119.25H361.283V119.55H361.583ZM366.213 119.55H366.513V119.25H366.213V119.55ZM366.213 122.688H365.913V123.658L366.46 122.857L366.213 122.688ZM367.284 121.349L367.066 121.143L367.065 121.143L367.284 121.349ZM368.662 120.201L368.504 119.946L368.498 119.949L368.662 120.201ZM370.384 119.435L370.468 119.723L370.475 119.721L370.384 119.435ZM377.845 121.234L378.069 121.034L377.845 121.234ZM379.72 139.754V140.054H380.02V139.754H379.72ZM375.09 139.754H374.79V140.054H375.09V139.754ZM373.942 124.639L373.714 124.834L373.72 124.841L373.942 124.639ZM367.476 124.678L367.691 124.887L367.694 124.883L367.476 124.678ZM365.913 128.351V139.754H366.513V128.351H365.913ZM366.213 139.454H361.583V140.054H366.213V139.454ZM361.883 139.754V119.55H361.283V139.754H361.883ZM361.583 119.85H366.213V119.25H361.583V119.85ZM365.913 119.55V122.688H366.513V119.55H365.913ZM366.46 122.857C366.784 122.385 367.131 121.95 367.503 121.554L367.065 121.143C366.672 121.563 366.305 122.022 365.965 122.519L366.46 122.857ZM367.503 121.554C367.894 121.138 368.335 120.771 368.825 120.452L368.498 119.949C367.968 120.294 367.491 120.692 367.066 121.143L367.503 121.554ZM368.82 120.456C369.332 120.139 369.881 119.894 370.468 119.723L370.3 119.147C369.662 119.333 369.063 119.6 368.504 119.946L368.82 120.456ZM370.475 119.721C371.079 119.528 371.761 119.429 372.527 119.429V118.829C371.71 118.829 370.964 118.935 370.292 119.15L370.475 119.721ZM372.527 119.429C374.757 119.429 376.441 120.108 377.621 121.433L378.069 121.034C376.75 119.553 374.887 118.829 372.527 118.829V119.429ZM377.621 121.433C378.811 122.768 379.42 124.578 379.42 126.897H380.02C380.02 124.471 379.38 122.506 378.069 121.034L377.621 121.433ZM379.42 126.897V139.754H380.02V126.897H379.42ZM379.72 139.454H375.09V140.054H379.72V139.454ZM375.39 139.754V128.275H374.79V139.754H375.39ZM375.39 128.275C375.39 126.648 374.997 125.353 374.164 124.438L373.72 124.841C374.419 125.609 374.79 126.738 374.79 128.275H375.39ZM374.171 124.445C373.362 123.497 372.212 123.038 370.766 123.038V123.638C372.076 123.638 373.043 124.047 373.714 124.834L374.171 124.445ZM370.766 123.038C369.341 123.038 368.162 123.512 367.257 124.472L367.694 124.883C368.473 124.057 369.488 123.638 370.766 123.638V123.038ZM367.26 124.469C366.349 125.408 365.913 126.716 365.913 128.351H366.513C366.513 126.823 366.919 125.682 367.691 124.887L367.26 124.469ZM406.702 139.754V140.054H407.002V139.754H406.702ZM402.072 139.754H401.772V140.054H402.072V139.754ZM402.072 136.387H402.372V135.443L401.827 136.214L402.072 136.387ZM399.278 139.065L399.113 138.815L399.111 138.817L399.278 139.065ZM391.702 139.486L391.815 139.209L391.702 139.486ZM388.717 137.458L388.499 137.664L388.502 137.667L388.717 137.458ZM386.613 134.129L386.335 134.243L386.613 134.129ZM386.574 125.175L386.297 125.061L386.295 125.066L386.574 125.175ZM388.679 121.884L388.894 122.093L388.897 122.09L388.679 121.884ZM391.664 119.818L391.552 119.539L391.55 119.54L391.664 119.818ZM399.317 120.201L399.48 119.949L399.317 120.201ZM402.072 122.688L401.836 122.873L402.372 123.557V122.688H402.072ZM402.072 111.821V111.521H401.772V111.821H402.072ZM406.702 111.821H407.002V111.521H406.702V111.821ZM401.651 126.974L401.371 127.082L401.374 127.09L401.651 126.974ZM400.388 124.946L400.166 125.148L400.171 125.153L400.388 124.946ZM394.036 123.606L394.149 123.884L394.154 123.882L394.036 123.606ZM392.199 124.869L391.982 124.662L392.199 124.869ZM390.937 126.935L391.216 127.044L391.217 127.041L390.937 126.935ZM390.937 132.369L390.656 132.474L390.657 132.477L390.937 132.369ZM392.199 134.397L391.982 134.604L392.199 134.397ZM394.036 135.698L393.914 135.972L393.918 135.974L394.036 135.698ZM400.388 134.397L400.605 134.604L400.61 134.599L400.388 134.397ZM401.651 132.331L401.374 132.215L401.371 132.222L401.651 132.331ZM406.702 139.454H402.072V140.054H406.702V139.454ZM402.372 139.754V136.387H401.772V139.754H402.372ZM401.827 136.214C401.11 137.227 400.206 138.095 399.113 138.815L399.443 139.316C400.595 138.556 401.554 137.638 402.317 136.56L401.827 136.214ZM399.111 138.817C398.074 139.516 396.771 139.875 395.184 139.875V140.475C396.862 140.475 398.289 140.094 399.446 139.314L399.111 138.817ZM395.184 139.875C394.024 139.875 392.902 139.653 391.815 139.209L391.588 139.764C392.746 140.238 393.946 140.475 395.184 140.475V139.875ZM391.815 139.209C390.732 138.765 389.772 138.113 388.932 137.249L388.502 137.667C389.397 138.589 390.427 139.289 391.588 139.764L391.815 139.209ZM388.935 137.252C388.096 136.363 387.413 135.286 386.89 134.015L386.335 134.243C386.883 135.574 387.604 136.716 388.499 137.664L388.935 137.252ZM386.89 134.015C386.372 132.757 386.109 131.304 386.109 129.652H385.509C385.509 131.367 385.782 132.9 386.335 134.243L386.89 134.015ZM386.109 129.652C386.109 127.998 386.36 126.544 386.854 125.285L386.295 125.066C385.769 126.408 385.509 127.938 385.509 129.652H386.109ZM386.852 125.289C387.375 124.019 388.057 122.956 388.894 122.093L388.464 121.675C387.567 122.599 386.845 123.729 386.297 125.061L386.852 125.289ZM388.897 122.09C389.736 121.202 390.696 120.538 391.777 120.096L391.55 119.54C390.386 120.016 389.356 120.73 388.461 121.678L388.897 122.09ZM391.775 120.097C392.889 119.651 394.024 119.429 395.184 119.429V118.829C393.946 118.829 392.734 119.067 391.552 119.539L391.775 120.097ZM395.184 119.429C396.799 119.429 398.116 119.777 399.153 120.452L399.48 119.949C398.323 119.196 396.885 118.829 395.184 118.829V119.429ZM399.153 120.452C400.225 121.15 401.118 121.957 401.836 122.873L402.308 122.503C401.546 121.531 400.602 120.68 399.48 119.949L399.153 120.452ZM402.372 122.688V111.821H401.772V122.688H402.372ZM402.072 112.121H406.702V111.521H402.072V112.121ZM406.402 111.821V139.754H407.002V111.821H406.402ZM402.448 129.652C402.448 128.624 402.277 127.691 401.927 126.858L401.374 127.09C401.688 127.838 401.848 128.691 401.848 129.652H402.448ZM401.93 126.865C401.611 126.041 401.17 125.331 400.605 124.738L400.171 125.153C400.677 125.683 401.078 126.324 401.371 127.082L401.93 126.865ZM400.61 124.743C400.046 124.126 399.386 123.654 398.631 123.331L398.395 123.882C399.069 124.171 399.659 124.592 400.166 125.148L400.61 124.743ZM398.631 123.331C397.88 123.009 397.1 122.847 396.294 122.847V123.447C397.018 123.447 397.717 123.592 398.395 123.882L398.631 123.331ZM396.294 122.847C395.463 122.847 394.67 123.008 393.918 123.331L394.154 123.882C394.83 123.592 395.543 123.447 396.294 123.447V122.847ZM393.923 123.328C393.193 123.626 392.546 124.071 391.982 124.662L392.416 125.076C392.924 124.544 393.501 124.148 394.149 123.884L393.923 123.328ZM391.982 124.662C391.415 125.256 390.974 125.98 390.656 126.83L391.217 127.041C391.511 126.258 391.912 125.605 392.416 125.076L391.982 124.662ZM390.657 126.827C390.335 127.659 390.177 128.602 390.177 129.652H390.777C390.777 128.661 390.926 127.794 391.216 127.044L390.657 126.827ZM390.177 129.652C390.177 130.678 390.335 131.62 390.656 132.474L391.217 132.264C390.926 131.485 390.777 130.616 390.777 129.652H390.177ZM390.657 132.477C390.976 133.301 391.417 134.012 391.982 134.604L392.416 134.19C391.91 133.66 391.51 133.018 391.216 132.261L390.657 132.477ZM391.982 134.604C392.544 135.193 393.189 135.65 393.914 135.972L394.158 135.424C393.506 135.134 392.926 134.724 392.416 134.19L391.982 134.604ZM393.918 135.974C394.67 136.296 395.463 136.457 396.294 136.457V135.857C395.543 135.857 394.83 135.712 394.154 135.422L393.918 135.974ZM396.294 136.457C397.1 136.457 397.88 136.296 398.631 135.974L398.395 135.422C397.717 135.713 397.018 135.857 396.294 135.857V136.457ZM398.631 135.974C399.383 135.652 400.041 135.195 400.605 134.604L400.171 134.19C399.663 134.722 399.072 135.132 398.395 135.422L398.631 135.974ZM400.61 134.599C401.172 133.983 401.612 133.262 401.93 132.439L401.371 132.222C401.077 132.981 400.675 133.637 400.166 134.195L400.61 134.599ZM401.927 132.447C402.277 131.614 402.448 130.681 402.448 129.652H401.848C401.848 130.613 401.688 131.466 401.374 132.215L401.927 132.447ZM419.058 116.451V116.751H419.358V116.451H419.058ZM414.084 116.451H413.784V116.751H414.084V116.451ZM414.084 112.05V111.75H413.784V112.05H414.084ZM419.058 112.05H419.358V111.75H419.058V112.05ZM418.905 139.754V140.054H419.205V139.754H418.905ZM414.275 139.754H413.975V140.054H414.275V139.754ZM414.275 119.55V119.25H413.975V119.55H414.275ZM418.905 119.55H419.205V119.25H418.905V119.55ZM419.058 116.151H414.084V116.751H419.058V116.151ZM414.384 116.451V112.05H413.784V116.451H414.384ZM414.084 112.35H419.058V111.75H414.084V112.35ZM418.758 112.05V116.451H419.358V112.05H418.758ZM418.905 139.454H414.275V140.054H418.905V139.454ZM414.575 139.754V119.55H413.975V139.754H414.575ZM414.275 119.85H418.905V119.25H414.275V119.85ZM418.605 119.55V139.754H419.205V119.55H418.605ZM443.438 139.754V140.054H443.738V139.754H443.438ZM438.846 139.754H438.546V140.054H438.846V139.754ZM438.846 137.267H439.146V136.446L438.617 137.073L438.846 137.267ZM436.206 139.333L436.067 139.067L436.206 139.333ZM429.548 139.754L429.64 139.469L429.633 139.466L429.548 139.754ZM427.252 138.606L427.059 138.836L427.069 138.844L427.252 138.606ZM425.683 136.655L425.413 136.785L425.419 136.796L425.683 136.655ZM425.721 130.991L425.453 130.857L425.721 130.991ZM427.405 128.963L427.229 128.72L427.225 128.723L427.405 128.963ZM430.007 127.777L430.082 128.068L430.087 128.066L430.007 127.777ZM436.397 127.586L436.344 127.881L436.345 127.881L436.397 127.586ZM438.885 128.198L438.793 128.484L439.185 128.61V128.198H438.885ZM437.584 124.486L437.386 124.712L437.389 124.715L437.584 124.486ZM430.849 123.721L430.924 124.012L430.849 123.721ZM428.132 124.639L427.848 124.736L427.951 125.04L428.248 124.916L428.132 124.639ZM426.869 120.928L426.745 120.655L426.498 120.767L426.585 121.024L426.869 120.928ZM430.313 119.703L430.238 119.413L430.313 119.703ZM441.257 121.502L441.041 121.71L441.043 121.712L441.257 121.502ZM438.961 131.183H439.261V130.978L439.07 130.903L438.961 131.183ZM436.857 130.609L436.8 130.903L436.801 130.904L436.857 130.609ZM430.926 131.221L430.756 130.974L430.926 131.221ZM430.811 135.928L430.64 136.175L430.644 136.177L430.811 135.928ZM435.709 136.387L435.62 136.1L435.617 136.101L435.709 136.387ZM437.431 135.545L437.609 135.787L437.616 135.78L437.431 135.545ZM438.54 134.206L438.274 134.066L438.272 134.072L438.54 134.206ZM443.438 139.454H438.846V140.054H443.438V139.454ZM439.146 139.754V137.267H438.546V139.754H439.146ZM438.617 137.073C437.956 137.856 437.108 138.522 436.067 139.067L436.345 139.599C437.447 139.022 438.359 138.31 439.076 137.46L438.617 137.073ZM436.067 139.067C435.048 139.601 433.798 139.875 432.303 139.875V140.475C433.87 140.475 435.221 140.188 436.345 139.599L436.067 139.067ZM432.303 139.875C431.363 139.875 430.476 139.739 429.64 139.469L429.456 140.04C430.355 140.33 431.304 140.475 432.303 140.475V139.875ZM429.633 139.466C428.798 139.221 428.067 138.854 427.435 138.368L427.069 138.844C427.764 139.378 428.563 139.777 429.463 140.042L429.633 139.466ZM427.445 138.376C426.838 137.866 426.339 137.246 425.948 136.513L425.419 136.796C425.844 137.594 426.391 138.274 427.059 138.836L427.445 138.376ZM425.953 136.524C425.593 135.78 425.409 134.92 425.409 133.938H424.809C424.809 134.996 425.008 135.948 425.413 136.785L425.953 136.524ZM425.409 133.938V133.861H424.809V133.938H425.409ZM425.409 133.861C425.409 132.802 425.606 131.893 425.99 131.126L425.453 130.857C425.02 131.723 424.809 132.727 424.809 133.861H425.409ZM425.99 131.126C426.378 130.35 426.909 129.71 427.585 129.203L427.225 128.723C426.473 129.288 425.882 130 425.453 130.857L425.99 131.126ZM427.581 129.206C428.287 128.695 429.119 128.315 430.082 128.068L429.933 127.487C428.906 127.75 428.003 128.16 427.229 128.72L427.581 129.206ZM430.087 128.066C431.079 127.794 432.148 127.656 433.298 127.656V127.056C432.1 127.056 430.977 127.199 429.928 127.488L430.087 128.066ZM433.298 127.656C434.511 127.656 435.525 127.732 436.344 127.881L436.451 127.291C435.586 127.133 434.533 127.056 433.298 127.056V127.656ZM436.345 127.881C437.2 128.032 438.016 128.233 438.793 128.484L438.977 127.913C438.172 127.653 437.33 127.446 436.45 127.29L436.345 127.881ZM439.185 128.198V127.701H438.585V128.198H439.185ZM439.185 127.701C439.185 126.232 438.728 125.068 437.778 124.258L437.389 124.715C438.174 125.384 438.585 126.363 438.585 127.701H439.185ZM437.782 124.261C436.865 123.456 435.559 123.077 433.91 123.077V123.677C435.476 123.677 436.618 124.037 437.386 124.712L437.782 124.261ZM433.91 123.077C432.743 123.077 431.697 123.193 430.774 123.431L430.924 124.012C431.787 123.79 432.782 123.677 433.91 123.677V123.077ZM430.774 123.431C429.867 123.664 428.947 123.975 428.017 124.363L428.248 124.916C429.154 124.539 430.046 124.237 430.924 124.012L430.774 123.431ZM428.416 124.543L427.153 120.831L426.585 121.024L427.848 124.736L428.416 124.543ZM426.994 121.201C428.101 120.698 429.232 120.295 430.389 119.994L430.238 119.413C429.047 119.723 427.883 120.137 426.745 120.655L426.994 121.201ZM430.389 119.994C431.531 119.696 432.919 119.544 434.561 119.544V118.944C432.886 118.944 431.443 119.099 430.238 119.413L430.389 119.994ZM434.561 119.544C437.526 119.544 439.665 120.285 441.041 121.71L441.473 121.293C439.941 119.708 437.616 118.944 434.561 118.944V119.544ZM441.043 121.712C442.427 123.12 443.138 125.127 443.138 127.777H443.738C443.738 125.019 442.995 122.843 441.471 121.291L441.043 121.712ZM443.138 127.777V139.754H443.738V127.777H443.138ZM439.261 132.445V131.183H438.661V132.445H439.261ZM439.07 130.903C438.462 130.665 437.741 130.469 436.912 130.314L436.801 130.904C437.605 131.054 438.287 131.241 438.852 131.462L439.07 130.903ZM436.914 130.314C436.102 130.157 435.241 130.079 434.331 130.079V130.679C435.207 130.679 436.029 130.754 436.8 130.903L436.914 130.314ZM434.331 130.079C432.843 130.079 431.64 130.366 430.756 130.974L431.095 131.468C431.843 130.954 432.911 130.679 434.331 130.679V130.079ZM430.756 130.974C429.853 131.595 429.401 132.494 429.401 133.632H430.001C430.001 132.678 430.366 131.97 431.095 131.468L430.756 130.974ZM429.401 133.632V133.708H430.001V133.632H429.401ZM429.401 133.708C429.401 134.767 429.812 135.603 430.64 136.175L430.981 135.681C430.33 135.231 430.001 134.588 430.001 133.708H429.401ZM430.644 136.177C431.468 136.726 432.46 136.993 433.604 136.993V136.393C432.555 136.393 431.684 136.149 430.977 135.678L430.644 136.177ZM433.604 136.993C434.396 136.993 435.129 136.887 435.8 136.673L435.617 136.101C435.013 136.294 434.343 136.393 433.604 136.393V136.993ZM435.797 136.674C436.488 136.461 437.093 136.166 437.609 135.786L437.253 135.303C436.799 135.638 436.256 135.904 435.62 136.1L435.797 136.674ZM437.616 135.78C438.133 135.373 438.532 134.893 438.809 134.34L438.272 134.072C438.038 134.539 437.698 134.952 437.245 135.309L437.616 135.78ZM438.806 134.345C439.11 133.764 439.261 133.129 439.261 132.445H438.661C438.661 133.037 438.531 133.576 438.274 134.066L438.806 134.345Z" fill="#FEFEFE"></path></svg>